<svg aria-hidden="true" style="position: absolute; width: 0; height: 0; overflow: hidden;" version="1.1"
    xmlns="http://www.w3.org/2000/svg" xmlns:xlink="http://www.w3.org/1999/xlink">
    <defs>
        <symbol id="icon-arrow-small-right" viewBox="0 0 32 32">
            <path fill="none" stroke="#c0b7e8" style="stroke: var(--color1, #c0b7e8)" stroke-linejoin="round"
                stroke-linecap="round" stroke-miterlimit="4" stroke-width="0.96"
                d="M22.667 16h-13.333M22.667 16l-5.333 5.333M22.667 16l-5.333-5.333"></path>
        </symbol>
        <symbol id="icon-herovector1" viewBox="0 0 20 32">
            <path stroke-linejoin="miter" stroke-linecap="butt" stroke-miterlimit="4" stroke-width="0.2844"
                d="M19.674 0.142c-4.23 0.704-12.283 4.704-10.654 15.075s-5.303 15.415-8.973 16.64"></path>
        </symbol>
        <symbol id="icon-herovector2" viewBox="0 0 15 32">
            <path stroke-linejoin="miter" stroke-linecap="butt" stroke-miterlimit="4" stroke-width="0.227"
                d="M0.121 0c-0.124 5.3 1.287 16.39 7.922 18.347s6.776 9.892 6.016 13.615"></path>
        </symbol>
        <symbol id="icon-herovector3" viewBox="0 0 56 32">
            <path stroke-linejoin="miter" stroke-linecap="butt" stroke-miterlimit="4" stroke-width="0.4539"
                d="M55.868 0.34c-18.673-0.92-55.936 4.115-55.603 31.622"></path>
        </symbol>
        <symbol id="icon-herovector4" viewBox="0 0 14 32">
            <path stroke-linejoin="miter" stroke-linecap="butt" stroke-miterlimit="4" stroke-width="0.3398"
                d="M0.085 0.17c5.834 2.162 16.532 11.543 12.658 31.773"></path>
        </symbol>
        <symbol id="icon-long-arrow-right" viewBox="0 0 73 32">
            <path fill="none" stroke="#c0b7e8" style="stroke: var(--color1, #c0b7e8)" stroke-linejoin="round"
                stroke-linecap="round" stroke-miterlimit="4" stroke-width="0.96"
                d="M63.627 16h-13.333M63.627 16l-5.333 5.333M63.627 16l-5.333-5.333"></path>
            <path fill="none" stroke="#c0b7e8" style="stroke: var(--color1, #c0b7e8)" stroke-linejoin="miter"
                stroke-linecap="butt" stroke-miterlimit="4" stroke-width="0.96" d="M50.4 16h-50.4"></path>
        </symbol>
        <symbol id="icon-location" viewBox="0 0 32 32">
            <path fill="#c0b7e8" style="fill: var(--color1, #c0b7e8)"
                d="M16 2.667c5.155 0 9.333 4.179 9.333 9.333 0 1.559-0.381 3.027-1.057 4.319l-8.276 14.347-8.084-13.999c-0.796-1.374-1.249-2.967-1.249-4.667 0-5.155 4.179-9.333 9.333-9.333zM16 5.333c-3.682 0-6.667 2.985-6.667 6.667 0 1.059 0.244 2.075 0.706 2.992l0.224 0.409 5.736 9.933 5.777-10.002c0.581-1.003 0.89-2.14 0.89-3.331 0-3.682-2.985-6.667-6.667-6.667zM16 8c2.209 0 4 1.791 4 4s-1.791 4-4 4c-2.209 0-4-1.791-4-4s1.791-4 4-4zM16 10.667c-0.736 0-1.333 0.597-1.333 1.333s0.597 1.333 1.333 1.333c0.736 0 1.333-0.597 1.333-1.333s-0.597-1.333-1.333-1.333z">
            </path>
        </symbol>
        <symbol id="icon-logo" viewBox="0 0 31 32">
            <path style="fill: var(--color1, #c0b7e8)"
                d="M28.712 11.095c0.359 2.075-1.845 1.523-1.845 1.523-0.922-2.599-2.398-2.357-2.398-2.357 1.155 0.844 1.243 1.561 1.243 1.561-3.078-2.182-7.263-0.427-8.855 0.398-0.893-1.261-2.699-4.083-2.058-5.363 0.845-1.678 2.563-0.718 2.563-0.718 3.476-0.058 3.282-1.3 3.282-1.3-0.922 0.718-3.641 0-3.641 0 2.359 0 3.359-0.96 3.359-0.96-1.757 0.436-3.719-1.435-3.719-1.435-0.719-3.676-4.039-2.114-4.039-2.114 2.078-0.359 1.524 1.843 1.524 1.843-2.602 0.921-2.359 2.395-2.359 2.395 0.845-1.154 1.563-1.241 1.563-1.241-2.379 3.346-0.087 8.001 0.592 9.213-1.243 0.863-4.156 2.764-5.466 2.104-1.68-0.844-0.718-2.56-0.718-2.56-0.039-3.472-1.282-3.278-1.282-3.278 0.718 0.921 0 3.637 0 3.637 0-2.357-0.961-3.355-0.961-3.355 0.437 1.755-1.437 3.714-1.437 3.714-3.68 0.718-2.117 4.034-2.117 4.034-0.359-2.075 1.845-1.523 1.845-1.523 0.922 2.599 2.398 2.357 2.398 2.357-1.155-0.844-1.243-1.561-1.243-1.561 3.253 2.308 7.748 0.213 9.107-0.524 0.913 1.309 2.612 4.005 1.981 5.256-0.845 1.678-2.563 0.718-2.563 0.718-3.476 0.039-3.282 1.28-3.282 1.28 0.922-0.718 3.641 0 3.641 0-2.359 0-3.359 0.96-3.359 0.96 1.757-0.436 3.719 1.435 3.719 1.435 0.719 3.675 4.039 2.114 4.039 2.114-2.078 0.359-1.524-1.843-1.524-1.843 2.602-0.921 2.359-2.395 2.359-2.395-0.845 1.154-1.563 1.241-1.563 1.241 2.33-3.268 0.184-7.797-0.544-9.126 1.32-0.921 3.99-2.57 5.224-1.949 1.68 0.844 0.718 2.56 0.718 2.56 0.039 3.472 1.282 3.278 1.282 3.278-0.718-0.921 0-3.637 0-3.637 0 2.357 0.961 3.355 0.961 3.355-0.437-1.755 1.437-3.714 1.437-3.714 3.699-0.708 2.136-4.025 2.136-4.025z">
            </path>
        </symbol>
        <symbol id="icon-logoname" viewBox="0 0 53 32">
            <path fill="#c0b7e8" style="fill: var(--color1, #c0b7e8)"
                d="M0 0h1.615v19.064h4.821v-19.064h1.614v32h-1.614v-11.33h-4.821v11.33h-1.615v-32z"></path>
            <path d="M19.988 0l-4.002 20.67v11.33h-1.615v-11.33l-4.025-20.67h1.478l3.366 17.233 3.343-17.233h1.455z">
            </path>
            <path
                d="M27.128 32h-4.844v-32h4.821c1.796 0 3.206 1.425 3.206 3.189v25.6c0.023 1.741-1.41 3.211-3.183 3.211zM23.899 1.606v28.789h3.206c0.864 0 1.615-0.724 1.615-1.606v-25.6c0-0.859-0.728-1.606-1.615-1.606h-3.206v0.023z">
            </path>
            <path
                d="M40.909 32h-1.66l-2.842-11.33h-1.933v11.33h-1.615v-32h4.821c1.796 0 3.206 1.425 3.206 3.189v14.27c0 1.606-1.251 2.963-2.842 3.143l2.865 11.398zM34.473 19.064h3.206c0.864 0 1.615-0.724 1.615-1.606v-14.27c0-0.859-0.728-1.606-1.615-1.606h-3.206v17.481z">
            </path>
            <path
                d="M45.775 20.67l-1.114 11.33h-1.455l3.229-32h3.206l3.206 32h-1.455l-1.114-11.33h-4.502zM48.344 1.606h-0.637l-1.751 17.459h4.139l-1.751-17.459z">
            </path>
        </symbol>
        <symbol id="icon-mail" viewBox="0 0 32 32">
            <path fill="none" stroke="#c0b7e8" style="stroke: var(--color1, #c0b7e8)" stroke-linejoin="round"
                stroke-linecap="round" stroke-miterlimit="4" stroke-width="2.9538"
                d="M4.391 7.057c0.241-0.241 0.575-0.391 0.943-0.391h21.333c0.368 0 0.701 0.149 0.943 0.391M4.391 7.057c-0.241 0.241-0.391 0.575-0.391 0.943v16c0 0.736 0.597 1.333 1.333 1.333h21.333c0.736 0 1.333-0.597 1.333-1.333v-16c0-0.368-0.149-0.702-0.391-0.943M4.391 7.057l9.724 9.724c1.041 1.041 2.73 1.041 3.771 0l9.724-9.724">
            </path>
        </symbol>
        <symbol id="icon-phone-call" viewBox="0 0 32 32">
            <path fill="none" stroke="#c0b7e8" style="stroke: var(--color1, #c0b7e8)" stroke-linejoin="round"
                stroke-linecap="round" stroke-miterlimit="4" stroke-width="3.2542"
                d="M19.333 8.667c0.983 0.192 1.959 0.625 2.667 1.333s1.142 1.684 1.333 2.667M20 4c2.042 0.227 3.88 1.215 5.333 2.667s2.437 3.292 2.667 5.333M27.999 21.969v3.613c0.006 1.381-1.236 2.534-2.631 2.409-12.035 0.009-21.369-9.411-21.359-21.365-0.126-1.387 1.022-2.624 2.401-2.625h3.62c0.586-0.006 1.153 0.201 1.597 0.582 1.262 1.084 2.074 4.761 1.762 6.223-0.244 1.141-1.395 1.94-2.177 2.721 1.718 3.015 4.219 5.512 7.24 7.226 0.782-0.781 1.582-1.929 2.726-2.173 1.467-0.312 5.169 0.501 6.248 1.772 0.383 0.451 0.586 1.026 0.571 1.617z">
            </path>
        </symbol>
        <symbol id="icon-chevron-small-down" viewBox="0 0 32 32">
            <path fill="none" stroke-linejoin="round" stroke-linecap="round" stroke-miterlimit="4" stroke-width="1.6"
                d="M9.333 13.333l6.667 6.667 6.667-6.667"></path>
        </symbol>
        <symbol id="icon-facebook" viewBox="0 0 32 32">
            <path fill="#c0b7e8" style="fill: var(--color1, #c0b7e8)"
                d="M0 16c0 8.837 7.163 16 16 16s16-7.163 16-16c0-8.837-7.163-16-16-16s-16 7.163-16 16zM16 8c4.4 0 8 3.6 8 8 0 4-2.9 7.4-6.9 8v-5.7h1.9l0.4-2.3h-2.2v-1.5c0-0.6 0.3-1.2 1.3-1.2h1v-2c0 0-0.9-0.2-1.8-0.2-1.8 0-3 1.1-3 3.1v1.8h-2v2.3h2v5.6c-3.8-0.6-6.7-3.9-6.7-7.9 0-4.4 3.6-8 8-8z">
            </path>
        </symbol>
        <symbol id="icon-twitter" viewBox="0 0 32 32">
            <path fill="#c0b7e8" style="fill: var(--color1, #c0b7e8)"
                d="M0 16c0 8.837 7.163 16 16 16s16-7.163 16-16c0-8.837-7.163-16-16-16s-16 7.163-16 16zM22.1 11.5c0.7-0.1 1.3-0.2 1.9-0.5-0.4 0.7-1 1.3-1.7 1.7 0.2 4.7-3.2 9.8-9.3 9.8-1.8 0-3.5-0.6-5-1.5 1.7 0.2 3.5-0.3 4.7-1.2-1.5 0-2.7-1-3.1-2.3 0.5 0.1 1 0 1.5-0.1-1.5-0.4-2.6-1.8-2.6-3.3 0.5 0.2 1 0.4 1.5 0.4-1.4-1-1.9-2.9-1-4.4 1.7 2 4.1 3.3 6.8 3.4-0.5-2 1.1-4 3.2-4 0.9 0 1.8 0.4 2.4 1 0.8-0.2 1.5-0.4 2.1-0.8-0.2 0.8-0.7 1.4-1.4 1.8z">
            </path>
        </symbol>
        <symbol id="icon-linkedin" viewBox="0 0 32 32">
            <path fill="#c0b7e8" style="fill: var(--color1, #c0b7e8)"
                d="M0 16c0-8.837 7.163-16 16-16s16 7.163 16 16c0 8.837-7.163 16-16 16s-16-7.163-16-16zM8.2 13.3v10.7h3.4v-10.7h-3.4zM8 9.9c0 1.1 0.8 1.9 1.9 1.9s1.9-0.8 1.9-1.9c0-1.1-0.8-1.9-1.9-1.9-1 0-1.9 0.8-1.9 1.9zM20.6 24h3.2v-6.6c0-3.3-2-4.4-3.9-4.4-1.7 0-2.9 1.1-3.2 1.8v-1.5h-3.2v10.7h3.4v-5.7c0-1.5 1-2.3 2-2.3s1.7 0.5 1.7 2.2v5.8z">
            </path>
        </symbol>
        <symbol id="icon-youtube" viewBox="0 0 32 32">
            <path fill="#c0b7e8" style="fill: var(--color1, #c0b7e8)" d="M18.6 16l-4.2-2.4v4.8l4.2-2.4z"></path>
            <path fill="#c0b7e8" style="fill: var(--color1, #c0b7e8)"
                d="M0 16c0 8.837 7.163 16 16 16s16-7.163 16-16c0-8.837-7.163-16-16-16s-16 7.163-16 16zM22.2 10.7c0.7 0.2 1.2 0.7 1.4 1.4 0.4 1.3 0.4 3.9 0.4 3.9s0 2.6-0.3 3.9c-0.2 0.7-0.7 1.2-1.4 1.4-1.3 0.3-6.3 0.3-6.3 0.3s-5.1 0-6.3-0.3c-0.7-0.2-1.2-0.7-1.4-1.4-0.3-1.3-0.3-3.9-0.3-3.9s0-2.6 0.2-3.9c0.2-0.7 0.7-1.2 1.4-1.4 1.3-0.3 6.3-0.3 6.3-0.3s5.1 0 6.3 0.3z">
            </path>
        </symbol>
        <symbol id="icon-instagram" viewBox="0 0 32 32">
            <path
                d="M16 18.8C14.5 18.8 13.2 17.6 13.2 16C13.2 14.5 14.4 13.2 16 13.2C17.5 13.2 18.8 14.4 18.8 16C18.8 17.5 17.5 18.8 16 18.8Z"
                fill="#C0B7E8" />
            <path fill-rule="evenodd" clip-rule="evenodd"
                d="M19.4 9.2H12.6C11.8 9.3 11.4 9.4 11.1 9.5C10.7 9.6 10.4 9.8 10.1 10.1C9.86261 10.3374 9.75045 10.5748 9.61489 10.8617C9.57916 10.9373 9.5417 11.0166 9.5 11.1C9.48453 11.1464 9.46667 11.1952 9.44752 11.2475C9.34291 11.5333 9.2 11.9238 9.2 12.6V19.4C9.3 20.2 9.4 20.6 9.5 20.9C9.6 21.3 9.8 21.6 10.1 21.9C10.3374 22.1374 10.5748 22.2495 10.8617 22.3851C10.9374 22.4209 11.0165 22.4583 11.1 22.5C11.1464 22.5155 11.1952 22.5333 11.2475 22.5525C11.5333 22.6571 11.9238 22.8 12.6 22.8H19.4C20.2 22.7 20.6 22.6 20.9 22.5C21.3 22.4 21.6 22.2 21.9 21.9C22.1374 21.6626 22.2495 21.4252 22.3851 21.1383C22.4209 21.0626 22.4583 20.9835 22.5 20.9C22.5155 20.8536 22.5333 20.8048 22.5525 20.7525C22.6571 20.4667 22.8 20.0762 22.8 19.4V12.6C22.7 11.8 22.6 11.4 22.5 11.1C22.4 10.7 22.2 10.4 21.9 10.1C21.6626 9.86261 21.4252 9.75045 21.1383 9.61488C21.0627 9.57918 20.9833 9.54167 20.9 9.5C20.8536 9.48453 20.8048 9.46666 20.7525 9.44752C20.4667 9.3429 20.0762 9.2 19.4 9.2ZM16 11.7C13.6 11.7 11.7 13.6 11.7 16C11.7 18.4 13.6 20.3 16 20.3C18.4 20.3 20.3 18.4 20.3 16C20.3 13.6 18.4 11.7 16 11.7ZM21.4 11.6C21.4 12.1523 20.9523 12.6 20.4 12.6C19.8477 12.6 19.4 12.1523 19.4 11.6C19.4 11.0477 19.8477 10.6 20.4 10.6C20.9523 10.6 21.4 11.0477 21.4 11.6Z"
                fill="#C0B7E8" />
            <path fill-rule="evenodd" clip-rule="evenodd"
                d="M0 16C0 7.16344 7.16344 0 16 0C24.8366 0 32 7.16344 32 16C32 24.8366 24.8366 32 16 32C7.16344 32 0 24.8366 0 16ZM12.6 7.7H19.4C20.3 7.8 20.9 7.9 21.4 8.1C22 8.4 22.4 8.6 22.9 9.1C23.4 9.6 23.7 10.1 23.9 10.6C24.1 11.1 24.3 11.7 24.3 12.6V19.4C24.2 20.3 24.1 20.9 23.9 21.4C23.6 22 23.4 22.4 22.9 22.9C22.4 23.4 21.9 23.7 21.4 23.9C20.9 24.1 20.3 24.3 19.4 24.3H12.6C11.7 24.2 11.1 24.1 10.6 23.9C10 23.6 9.6 23.4 9.1 22.9C8.6 22.4 8.3 21.9 8.1 21.4C7.9 20.9 7.7 20.3 7.7 19.4V12.6C7.8 11.7 7.9 11.1 8.1 10.6C8.4 10 8.6 9.6 9.1 9.1C9.6 8.6 10.1 8.3 10.6 8.1C11.1 7.9 11.7 7.7 12.6 7.7Z"
                fill="#C0B7E8" />
        </symbol>
        <symbol id="icon-pinterest" viewBox="0 0 32 32">
            <path fill="#c0b7e8" style="fill: var(--color1, #c0b7e8)"
                d="M0 16c0 8.837 7.163 16 16 16s16-7.163 16-16c0-8.837-7.163-16-16-16s-16 7.163-16 16zM8 16c0-4.4 3.6-8 8-8s8 3.6 7.9 7.6c0 4.4-3.6 8-8 8-0.8 0-1.6-0.1-2.3-0.3 0.3-0.5 0.6-1.1 0.8-1.7 0.1-0.4 0.6-2.2 0.6-2.2 0.3 0.5 1.1 1 2 1 2.6 0 4.3-2.4 4.3-5.5 0-2.4-2-4.6-5.1-4.6-3.8 0-5.7 2.7-5.7 5 0 1.4 0.5 2.6 1.6 3.1 0.2 0.1 0.3 0 0.4-0.2 0.1-0.1 0.2-0.5 0.2-0.6 0.071-0.141 0.041-0.183-0.017-0.266-0.024-0.034-0.053-0.076-0.083-0.134-0.3-0.4-0.5-0.9-0.5-1.6 0-2 1.5-3.8 3.9-3.8 2.1 0 3.3 1.3 3.3 3.1 0 2.4-1 4.3-2.5 4.3-0.9 0-1.5-0.7-1.3-1.5 0.084-0.417 0.219-0.852 0.349-1.268 0.181-0.58 0.351-1.124 0.351-1.532 0-0.7-0.4-1.2-1.1-1.2-0.8 0-1.5 0.9-1.5 2.1 0 0.8 0.3 1.3 0.3 1.3s-0.8 3.7-1 4.4c-0.1 0.6-0.1 1.2-0.1 1.8-2.8-1.2-4.8-4-4.8-7.3z">
            </path>
        </symbol>
    </defs>
</svg>